<?xml version="1.0" standalone="no"?>
<!DOCTYPE svg PUBLIC "-//W3C//DTD SVG 20010904//EN"
 "http://www.w3.org/TR/2001/REC-SVG-20010904/DTD/svg10.dtd">
<svg version="1.0" xmlns="http://www.w3.org/2000/svg"
 width="192.000000pt" height="192.000000pt" viewBox="0 0 192.000000 192.000000"
 preserveAspectRatio="xMidYMid meet">
<metadata>
Created by potrace 1.14, written by Peter Selinger 2001-2017
</metadata>
<g transform="translate(0.000000,192.000000) scale(0.100000,-0.100000)"
fill="#000000" stroke="none">
<path d="M758 1915 c-2 -1 -41 -6 -88 -9 -47 -4 -96 -8 -110 -10 -14 -2 -47
-7 -75 -11 -121 -15 -377 -76 -426 -101 -25 -12 -26 -16 -23 -82 4 -120 14
-202 34 -307 6 -27 12 -61 15 -74 11 -57 69 -231 110 -326 91 -212 218 -416
384 -615 81 -98 358 -370 376 -370 14 0 145 115 220 193 122 126 155 164 229
262 37 50 73 97 80 105 50 63 183 301 231 415 62 145 124 354 140 470 3 22 8
51 10 65 2 14 7 70 10 125 4 55 8 106 11 113 2 7 -9 17 -24 23 -46 19 -193 61
-197 58 -2 -2 -6 -33 -9 -69 -14 -137 -17 -166 -21 -190 -3 -14 -7 -41 -10
-60 -72 -438 -296 -880 -601 -1184 l-68 -67 -91 93 c-99 100 -205 238 -286
370 -44 71 -169 316 -169 331 0 8 152 27 325 42 74 6 336 6 443 0 l92 -6 11
28 c19 49 69 216 66 219 -24 25 -774 24 -817 -1 -3 -1 -27 -5 -55 -9 -27 -3
-71 -9 -96 -14 l-46 -9 -22 86 c-26 103 -36 187 -24 194 10 7 186 38 288 51
136 18 427 24 600 12 86 -6 115 -9 204 -21 37 -5 39 -4 45 27 5 29 12 87 20
186 2 18 1 34 -3 36 -3 2 -38 7 -78 11 -40 4 -85 9 -100 11 -32 5 -500 14
-505 9z"/>
</g>
</svg>
