<svg id="discord" width="30" height="30" viewBox="0 0 30 30" xmlns="http://www.w3.org/2000/svg">
<path fill-rule="evenodd" clip-rule="evenodd" d="M20.1269 23.681L21.6549 25.5C26.7481 25.4272 28.7127 22.0075 28.7127 22.0075C28.7127 14.4403 25.3657 8.40112 25.3657 8.40112C21.9459 6 18.8172 6 18.8172 6L18.4534 6.29104C22.3097 7.3097 24.7836 9.27425 24.7108 9.34701C20.709 6.29104 10.5224 6 5.57463 9.34701C5.57463 9.34701 7.39366 7.45522 11.6138 6.29104L11.3955 6C11.3955 6 8.26679 6 4.84701 8.40112C4.84701 8.40112 1.5 14.4403 1.5 22.0075C1.5 22.0075 3.46455 25.4272 8.55784 25.5L10.2313 23.681C7.17537 22.7351 6.15672 20.8433 6.15672 20.8433C10.1586 24.5541 20.4907 24.4086 24.2743 20.8433C24.2743 20.8433 23.1101 22.8806 20.1269 23.681ZM10.7409 19.8246C12.067 19.8246 13.142 18.6845 13.142 17.278C13.142 15.8715 12.067 14.7313 10.7409 14.7313C9.41481 14.7313 8.3398 15.8715 8.3398 17.278C8.3398 18.6845 9.41481 19.8246 10.7409 19.8246ZM19.1814 19.8246C20.5075 19.8246 21.5826 18.6845 21.5826 17.278C21.5826 15.8715 20.5075 14.7313 19.1814 14.7313C17.8553 14.7313 16.7803 15.8715 16.7803 17.278C16.7803 18.6845 17.8553 19.8246 19.1814 19.8246Z" />
</svg>
