<svg width="30" height="31" viewBox="0 0 30 31" fill="none" xmlns="http://www.w3.org/2000/svg">
<path d="M17.6999 7.09971H20.6999C21.0311 7.09971 21.2999 6.83091 21.2999 6.49971V2.45751C21.2999 2.14311 21.0581 1.88151 20.7449 1.85931C19.7903 1.79151 17.9255 1.69971 16.5845 1.69971C12.8999 1.69971 10.4999 3.90771 10.4999 7.92051V11.8997H6.29989C5.96869 11.8997 5.69989 12.1685 5.69989 12.4997V16.6997C5.69989 17.0309 5.96869 17.2997 6.29989 17.2997H10.4999V28.6997C10.4999 29.0309 10.7687 29.2997 11.0999 29.2997H15.2999C15.6311 29.2997 15.8999 29.0309 15.8999 28.6997V17.2997H20.2331C20.5391 17.2997 20.7959 17.0699 20.8295 16.7657L21.2963 12.5657C21.3359 12.2105 21.0575 11.8997 20.6999 11.8997H15.8999V8.89972C15.8999 7.90551 16.7057 7.09971 17.6999 7.09971Z" fill="white"/>
</svg>
