<svg width="28" height="27" viewBox="0 0 28 27" fill="none" xmlns="http://www.w3.org/2000/svg">
<path d="M14 17.6667C16.3013 17.6667 18.1667 15.8012 18.1667 13.5C18.1667 11.1988 16.3013 9.33334 14 9.33334C11.6987 9.33334 9.83325 11.1988 9.83325 13.5C9.83325 15.8012 11.6987 17.6667 14 17.6667Z" fill="white"/>
<path fill-rule="evenodd" clip-rule="evenodd" d="M8 0C3.85786 0 0.5 3.35786 0.5 7.5V19.5C0.5 23.6421 3.85786 27 8 27H20C24.1421 27 27.5 23.6421 27.5 19.5V7.5C27.5 3.35786 24.1421 0 20 0H8ZM23 4.5C23 5.32844 22.3284 6 21.5 6C20.6716 6 20 5.32844 20 4.5C20 3.67156 20.6716 3 21.5 3C22.3284 3 23 3.67156 23 4.5ZM14 21C18.1418 21 21.5 17.6421 21.5 13.5C21.5 9.35785 18.1418 6 14 6C9.85815 6 6.5 9.35785 6.5 13.5C6.5 17.6421 9.85815 21 14 21Z" fill="white"/>
</svg>
