<svg width="30" height="31" viewBox="0 0 30 31" fill="none" xmlns="http://www.w3.org/2000/svg">
<path fill-rule="evenodd" clip-rule="evenodd" d="M15 2C22.4559 2 28.5 8.04409 28.5 15.5C28.5 22.9559 22.4559 29 15 29C7.54409 29 1.5 22.9559 1.5 15.5C1.5 8.04409 7.54409 2 15 2ZM11.0345 10.4049C13.8487 10.4049 16.1297 12.6864 16.1297 15.5C16.1297 18.3136 13.8487 20.5951 11.0345 20.5951C8.22094 20.5951 5.93994 18.3136 5.93994 15.5C5.93994 12.6864 8.22094 10.4049 11.0345 10.4049ZM19.1868 10.8075C20.6108 10.8075 21.7648 12.9083 21.7648 15.5C21.7648 18.0917 20.6108 20.1925 19.1868 20.1925C17.7629 20.1925 16.6089 18.0917 16.6089 15.5C16.6089 12.9083 17.7629 10.8075 19.1868 10.8075ZM23.1623 11.2096C23.658 11.2096 24.0601 13.1302 24.0601 15.5C24.0601 17.8698 23.658 19.7904 23.1623 19.7904C22.6662 19.7904 22.2641 17.8698 22.2641 15.5C22.2641 13.1302 22.6662 11.2096 23.1623 11.2096Z" fill="white"/>
</svg>
