<svg width="30" height="31" viewBox="0 0 30 31" fill="none" xmlns="http://www.w3.org/2000/svg">
<path d="M24.0871 5.06812C24.0871 5.06812 26.5154 4.12124 26.313 6.4208C26.2456 7.36769 25.6385 10.6817 25.1663 14.2664L23.5474 24.8849C23.5474 24.8849 23.4126 26.4405 22.1984 26.7111C20.9842 26.9816 19.163 25.7642 18.8257 25.4936C18.5559 25.2908 13.7667 22.2472 12.0804 20.7592C11.6082 20.3534 11.0686 19.5418 12.1478 18.5949L19.2304 11.8316C20.0399 11.0199 20.8493 9.12619 17.4766 11.4257L8.03319 17.851C8.03319 17.851 6.95394 18.5273 4.93037 17.9186L0.545885 16.5659C0.545885 16.5659 -1.073 15.5514 1.69259 14.5369C8.43794 11.3581 16.7347 8.11162 24.0871 5.06812Z" fill="white"/>
</svg>
