<svg width="30" height="31" viewBox="0 0 30 31" fill="none" xmlns="http://www.w3.org/2000/svg">
<g clip-path="url(#clip0_1437_346)">
<path d="M30.0375 6.76255C28.9289 7.25474 27.7406 7.58521 26.4914 7.73521C27.7664 6.97114 28.7461 5.76177 29.2055 4.32271C28.0148 5.02817 26.6906 5.54146 25.2867 5.81802C24.1617 4.61802 22.5586 3.87036 20.7844 3.87036C17.3766 3.87036 14.6133 6.6313 14.6133 10.0391C14.6133 10.5219 14.6695 10.993 14.775 11.4454C9.64688 11.1875 5.10234 8.7313 2.05781 4.99771C1.52578 5.91177 1.22344 6.97114 1.22344 8.10083C1.22344 10.2407 2.31094 12.1297 3.96797 13.2383C2.95547 13.2055 2.00391 12.9266 1.17188 12.4649C1.17188 12.4907 1.17188 12.5165 1.17188 12.5422C1.17188 15.5329 3.3 18.0243 6.11953 18.5938C5.60391 18.7344 5.05781 18.8094 4.49531 18.8094C4.09688 18.8094 3.71016 18.7719 3.33281 18.6969C4.12031 21.1461 6.39844 22.9344 9.09609 22.9836C6.98672 24.6383 4.32656 25.6227 1.43438 25.6227C0.935156 25.6227 0.445313 25.5946 -0.0351562 25.536C2.69297 27.2891 5.93672 28.3086 9.42188 28.3086C20.7703 28.3086 26.9766 18.9079 26.9766 10.7563C26.9766 10.4891 26.9695 10.2196 26.9602 9.95708C28.1648 9.08755 29.2102 8.00005 30.0375 6.76255Z" fill="white"/>
</g>
<defs>
<clipPath id="clip0_1437_346">
<rect width="30" height="30" fill="white" transform="translate(0 0.5)"/>
</clipPath>
</defs>
</svg>
