<svg width="28" height="31" viewBox="0 0 28 31" fill="none" xmlns="http://www.w3.org/2000/svg">
<g clip-path="url(#clip0_1437_448)">
<path d="M0.79904 0.803467C0.510022 1.26589 0.336612 1.81503 0.278809 2.45087V28.5491C0.336612 29.185 0.510022 29.7341 0.79904 30.1965L15.4522 15.4566" fill="#2FCFFF"/>
<path d="M15.4521 15.4566L20.481 20.4855L26.2036 17.1907C28.2267 16.0924 28.2267 14.9653 26.2036 13.8092L20.481 10.5144" fill="#FDCC00"/>
<path d="M0.799072 30.1967C1.72393 30.6013 2.56208 30.6013 3.31352 30.1967L20.5679 20.4857L15.539 15.4568" fill="#F0304B"/>
<path d="M0.799072 0.803468L15.4523 15.4566L20.4812 10.5145L3.31353 0.803468C2.38867 0.398844 1.55052 0.398844 0.799072 0.803468Z" fill="#43E475"/>
</g>
<defs>
<clipPath id="clip0_1437_448">
<rect width="27.4422" height="30" fill="white" transform="translate(0.278809 0.5)"/>
</clipPath>
</defs>
</svg>
