<svg width="25" height="31" viewBox="0 0 25 31" fill="none" xmlns="http://www.w3.org/2000/svg">
<g clip-path="url(#clip0_1437_441)">
<path d="M7.81645 7.98841C9.01762 7.95326 10.0137 8.36341 11.0157 8.73841C11.461 8.90833 11.9063 9.07826 12.3692 9.2013C12.7325 9.30091 13.084 9.25404 13.4297 9.12513C14.0274 8.90833 14.6192 8.69154 15.2168 8.46888C16.2598 8.08216 17.3321 7.81849 18.4454 7.8888C20.5254 8.01771 22.2891 8.8263 23.6309 10.4611C23.8653 10.7423 23.8477 10.7716 23.5547 10.9767C21.3809 12.506 20.4317 14.6095 20.7247 17.2404C20.9825 19.5783 22.2188 21.254 24.3047 22.3146C24.5743 22.4493 24.627 22.5724 24.5274 22.8478C23.8301 24.7521 22.8457 26.4923 21.5567 28.0568C21.17 28.5255 20.7774 28.9826 20.3204 29.3751C19.295 30.2482 18.1348 30.4415 16.8399 30.1017C16.1778 29.9259 15.5625 29.6271 14.9122 29.4103C13.6582 29.0001 12.4219 29.0763 11.1797 29.4747C10.5293 29.6857 9.9141 29.9728 9.252 30.1544C7.96293 30.5118 6.87309 30.1954 5.91215 29.2931C4.28324 27.7697 3.07621 25.9474 2.17387 23.9259C1.51176 22.4611 1.03715 20.9142 0.779338 19.3087C0.457072 17.3224 0.433635 15.3478 1.04301 13.4083C1.5352 11.8204 2.38481 10.4611 3.70317 9.43568C4.93364 8.4806 6.33403 7.96497 7.81645 7.98841Z" fill="white"/>
<path d="M12.5272 6.93337C12.5858 5.07595 13.3944 3.58767 14.7714 2.38064C15.7674 1.50759 16.9335 1.00369 18.2225 0.763451C18.4217 0.728295 18.5038 0.757592 18.5096 0.980248C18.5272 3.18337 17.7128 4.99978 16.0311 6.42947C15.1229 7.2029 14.0858 7.58376 12.8964 7.59548C12.6034 7.60134 12.4803 7.51931 12.5214 7.22048C12.5389 7.13259 12.5272 7.03298 12.5272 6.93337Z" fill="white"/>
</g>
<defs>
<clipPath id="clip0_1437_441">
<rect width="25" height="31" fill="white"/>
</clipPath>
</defs>
</svg>
