<svg xmlns="http://www.w3.org/2000/svg" display="none">
<symbol id="play" viewBox="0 0 7 13">
<path d="M1.65079 10.7518C1.00212 11.3078 -5.76932e-08 10.8469 -9.50382e-08 9.99253L-4.29498e-07 2.34097C-4.66843e-07 1.48662 1.00212 1.02571 1.65079 1.58171L6.1142 5.40749C6.57981 5.80659 6.57981 6.52691 6.1142 6.926L1.65079 10.7518Z"/>
</symbol>

<symbol id="instagram" viewBox="0 0 28 27">
<path d="M14 17.6667C16.3013 17.6667 18.1667 15.8012 18.1667 13.5C18.1667 11.1988 16.3013 9.33334 14 9.33334C11.6987 9.33334 9.83325 11.1988 9.83325 13.5C9.83325 15.8012 11.6987 17.6667 14 17.6667Z"/>
<path fill-rule="evenodd" clip-rule="evenodd" d="M8 0C3.85786 0 0.5 3.35786 0.5 7.5V19.5C0.5 23.6421 3.85786 27 8 27H20C24.1421 27 27.5 23.6421 27.5 19.5V7.5C27.5 3.35786 24.1421 0 20 0H8ZM23 4.5C23 5.32844 22.3284 6 21.5 6C20.6716 6 20 5.32844 20 4.5C20 3.67156 20.6716 3 21.5 3C22.3284 3 23 3.67156 23 4.5ZM14 21C18.1418 21 21.5 17.6421 21.5 13.5C21.5 9.35785 18.1418 6 14 6C9.85815 6 6.5 9.35785 6.5 13.5C6.5 17.6421 9.85815 21 14 21Z"/>
</symbol>

<symbol id="facebook" viewBox="0 0 30 31">
<path d="M17.6999 7.09971H20.6999C21.0311 7.09971 21.2999 6.83091 21.2999 6.49971V2.45751C21.2999 2.14311 21.0581 1.88151 20.7449 1.85931C19.7903 1.79151 17.9255 1.69971 16.5845 1.69971C12.8999 1.69971 10.4999 3.90771 10.4999 7.92051V11.8997H6.29989C5.96869 11.8997 5.69989 12.1685 5.69989 12.4997V16.6997C5.69989 17.0309 5.96869 17.2997 6.29989 17.2997H10.4999V28.6997C10.4999 29.0309 10.7687 29.2997 11.0999 29.2997H15.2999C15.6311 29.2997 15.8999 29.0309 15.8999 28.6997V17.2997H20.2331C20.5391 17.2997 20.7959 17.0699 20.8295 16.7657L21.2963 12.5657C21.3359 12.2105 21.0575 11.8997 20.6999 11.8997H15.8999V8.89972C15.8999 7.90551 16.7057 7.09971 17.6999 7.09971Z"/>
</symbol>

<symbol id="medium" viewBox="0 0 30 31">
<path fill-rule="evenodd" clip-rule="evenodd" d="M15 2C22.4559 2 28.5 8.04409 28.5 15.5C28.5 22.9559 22.4559 29 15 29C7.54409 29 1.5 22.9559 1.5 15.5C1.5 8.04409 7.54409 2 15 2ZM11.0345 10.4049C13.8487 10.4049 16.1297 12.6864 16.1297 15.5C16.1297 18.3136 13.8487 20.5951 11.0345 20.5951C8.22094 20.5951 5.93994 18.3136 5.93994 15.5C5.93994 12.6864 8.22094 10.4049 11.0345 10.4049ZM19.1868 10.8075C20.6108 10.8075 21.7648 12.9083 21.7648 15.5C21.7648 18.0917 20.6108 20.1925 19.1868 20.1925C17.7629 20.1925 16.6089 18.0917 16.6089 15.5C16.6089 12.9083 17.7629 10.8075 19.1868 10.8075ZM23.1623 11.2096C23.658 11.2096 24.0601 13.1302 24.0601 15.5C24.0601 17.8698 23.658 19.7904 23.1623 19.7904C22.6662 19.7904 22.2641 17.8698 22.2641 15.5C22.2641 13.1302 22.6662 11.2096 23.1623 11.2096Z"/>
</symbol>

<symbol id="telegram" viewBox="0 0 30 31">
<path d="M24.0871 5.06812C24.0871 5.06812 26.5154 4.12124 26.313 6.4208C26.2456 7.36769 25.6385 10.6817 25.1663 14.2664L23.5474 24.8849C23.5474 24.8849 23.4126 26.4405 22.1984 26.7111C20.9842 26.9816 19.163 25.7642 18.8257 25.4936C18.5559 25.2908 13.7667 22.2472 12.0804 20.7592C11.6082 20.3534 11.0686 19.5418 12.1478 18.5949L19.2304 11.8316C20.0399 11.0199 20.8493 9.12619 17.4766 11.4257L8.03319 17.851C8.03319 17.851 6.95394 18.5273 4.93037 17.9186L0.545885 16.5659C0.545885 16.5659 -1.073 15.5514 1.69259 14.5369C8.43794 11.3581 16.7347 8.11162 24.0871 5.06812Z"/>
</symbol>

<symbol id="twitter" viewBox="0 0 30 31">
<g clip-path="url(#clip0_1437_346)">
<path d="M30.0375 6.76255C28.9289 7.25474 27.7406 7.58521 26.4914 7.73521C27.7664 6.97114 28.7461 5.76177 29.2055 4.32271C28.0148 5.02817 26.6906 5.54146 25.2867 5.81802C24.1617 4.61802 22.5586 3.87036 20.7844 3.87036C17.3766 3.87036 14.6133 6.6313 14.6133 10.0391C14.6133 10.5219 14.6695 10.993 14.775 11.4454C9.64688 11.1875 5.10234 8.7313 2.05781 4.99771C1.52578 5.91177 1.22344 6.97114 1.22344 8.10083C1.22344 10.2407 2.31094 12.1297 3.96797 13.2383C2.95547 13.2055 2.00391 12.9266 1.17188 12.4649C1.17188 12.4907 1.17188 12.5165 1.17188 12.5422C1.17188 15.5329 3.3 18.0243 6.11953 18.5938C5.60391 18.7344 5.05781 18.8094 4.49531 18.8094C4.09688 18.8094 3.71016 18.7719 3.33281 18.6969C4.12031 21.1461 6.39844 22.9344 9.09609 22.9836C6.98672 24.6383 4.32656 25.6227 1.43438 25.6227C0.935156 25.6227 0.445313 25.5946 -0.0351562 25.536C2.69297 27.2891 5.93672 28.3086 9.42188 28.3086C20.7703 28.3086 26.9766 18.9079 26.9766 10.7563C26.9766 10.4891 26.9695 10.2196 26.9602 9.95708C28.1648 9.08755 29.2102 8.00005 30.0375 6.76255Z"/>
</g>
<defs>
<clipPath id="clip0_1437_346">
<rect width="30" height="30" transform="translate(0 0.5)"/>
</clipPath>
</defs>
</symbol>

<symbol id="apple" viewBox="0 0 25 31">
<g clip-path="url(#clip0_1437_441)">
<path d="M7.81645 7.98841C9.01762 7.95326 10.0137 8.36341 11.0157 8.73841C11.461 8.90833 11.9063 9.07826 12.3692 9.2013C12.7325 9.30091 13.084 9.25404 13.4297 9.12513C14.0274 8.90833 14.6192 8.69154 15.2168 8.46888C16.2598 8.08216 17.3321 7.81849 18.4454 7.8888C20.5254 8.01771 22.2891 8.8263 23.6309 10.4611C23.8653 10.7423 23.8477 10.7716 23.5547 10.9767C21.3809 12.506 20.4317 14.6095 20.7247 17.2404C20.9825 19.5783 22.2188 21.254 24.3047 22.3146C24.5743 22.4493 24.627 22.5724 24.5274 22.8478C23.8301 24.7521 22.8457 26.4923 21.5567 28.0568C21.17 28.5255 20.7774 28.9826 20.3204 29.3751C19.295 30.2482 18.1348 30.4415 16.8399 30.1017C16.1778 29.9259 15.5625 29.6271 14.9122 29.4103C13.6582 29.0001 12.4219 29.0763 11.1797 29.4747C10.5293 29.6857 9.9141 29.9728 9.252 30.1544C7.96293 30.5118 6.87309 30.1954 5.91215 29.2931C4.28324 27.7697 3.07621 25.9474 2.17387 23.9259C1.51176 22.4611 1.03715 20.9142 0.779338 19.3087C0.457072 17.3224 0.433635 15.3478 1.04301 13.4083C1.5352 11.8204 2.38481 10.4611 3.70317 9.43568C4.93364 8.4806 6.33403 7.96497 7.81645 7.98841Z"/>
<path d="M12.5272 6.93337C12.5858 5.07595 13.3944 3.58767 14.7714 2.38064C15.7674 1.50759 16.9335 1.00369 18.2225 0.763451C18.4217 0.728295 18.5038 0.757592 18.5096 0.980248C18.5272 3.18337 17.7128 4.99978 16.0311 6.42947C15.1229 7.2029 14.0858 7.58376 12.8964 7.59548C12.6034 7.60134 12.4803 7.51931 12.5214 7.22048C12.5389 7.13259 12.5272 7.03298 12.5272 6.93337Z"/>
</g>
<defs>
<clipPath id="clip0_1437_441">
<rect width="25" height="31"/>
</clipPath>
</defs>
</symbol>

<symbol id="app-store" viewBox="0 0 28 31">
<g clip-path="url(#clip0_1437_448)">
<path d="M0.79904 0.803467C0.510022 1.26589 0.336612 1.81503 0.278809 2.45087V28.5491C0.336612 29.185 0.510022 29.7341 0.79904 30.1965L15.4522 15.4566" fill="#2FCFFF"/>
<path d="M15.4521 15.4566L20.481 20.4855L26.2036 17.1907C28.2267 16.0924 28.2267 14.9653 26.2036 13.8092L20.481 10.5144" fill="#FDCC00"/>
<path d="M0.799072 30.1967C1.72393 30.6013 2.56208 30.6013 3.31352 30.1967L20.5679 20.4857L15.539 15.4568" fill="#F0304B"/>
<path d="M0.799072 0.803468L15.4523 15.4566L20.4812 10.5145L3.31353 0.803468C2.38867 0.398844 1.55052 0.398844 0.799072 0.803468Z" fill="#43E475"/>
</g>
<defs>
<clipPath id="clip0_1437_448">
<rect width="27.4422" height="30" fill="white" transform="translate(0.278809 0.5)"/>
</clipPath>
</defs>
</symbol>

<symbol id="arrow-top" viewBox="0 0 22 13">
<rect x="10.6067" width="2" height="15" rx="1" transform="rotate(45 10.6067 0)" fill="white"/>
<rect x="21.2131" y="10.6067" width="2" height="15" rx="1" transform="rotate(135 21.2131 10.6067)" fill="white"/>
</symbol>

<symbol id="arrow-down" viewBox="0 0 22 13">
<rect width="2" height="15" rx="1" transform="matrix(0.707107 -0.707107 -0.707107 -0.707107 10.6067 13)" fill="white"/>
<rect width="2" height="15" rx="1" transform="matrix(-0.707107 -0.707107 -0.707107 0.707107 21.2131 2.39355)" fill="white"/>
</symbol>
</svg>
