<svg width="225" height="40" viewBox="0 0 225 40" fill="none" xmlns="http://www.w3.org/2000/svg">
<g clip-path="url(#clip0_1304_2338)">
<path d="M49.033 19.6344H52.9598V15.1769H66.6509V11.9929H52.9598V9.55187H67.0754V6.15564H49.033V19.6344Z" fill="#85868B"/>
<path d="M85.5423 6.5802C83.9503 6.04954 81.8277 5.83728 79.1744 5.83728C76.6272 5.83728 74.5046 6.04954 72.8065 6.5802C71.2145 7.11086 69.9409 7.85379 69.198 8.91511C68.455 9.97643 68.0305 11.25 68.0305 12.9481C68.0305 14.5401 68.455 15.9198 69.198 16.875C69.9409 17.9363 71.2145 18.6793 72.8065 19.2099C74.3984 19.7406 76.5211 19.9528 79.1744 19.9528C81.7216 19.9528 83.8442 19.7406 85.5423 19.2099C87.1343 18.6793 88.4079 17.9363 89.1508 16.875C89.8937 15.8137 90.3183 14.5401 90.3183 12.9481C90.3183 11.3561 89.8937 9.97643 89.1508 8.91511C88.4079 7.85379 87.2404 7.11086 85.5423 6.5802ZM85.9668 14.5401C85.7546 14.9646 85.33 15.3892 84.7994 15.6014C84.2687 15.9198 83.5258 16.1321 82.6767 16.2382C81.7216 16.3444 80.6602 16.4505 79.2805 16.4505C77.4763 16.4505 76.0966 16.3444 75.0352 16.1321C73.9739 15.9198 73.231 15.4953 72.8065 14.9646C72.3819 14.434 72.1697 13.6911 72.1697 12.842C72.1697 11.9929 72.3819 11.25 72.8065 10.7194C73.231 10.1887 73.9739 9.76417 75.0352 9.5519C76.0966 9.33964 77.4763 9.23351 79.2805 9.23351C80.6602 9.23351 81.7216 9.33964 82.6767 9.44577C83.6319 9.5519 84.2687 9.76417 84.7994 10.0826C85.33 10.401 85.7546 10.7194 85.9668 11.1439C86.1791 11.5684 86.2852 12.2052 86.2852 12.842C86.2852 13.4788 86.1791 14.1156 85.9668 14.5401Z" fill="#85868B"/>
<path d="M108.997 14.8585C109.74 14.5401 110.271 14.0095 110.589 13.3727C111.014 12.7359 111.12 11.8868 111.12 10.9317C111.12 10.0826 111.014 9.33967 110.696 8.70288C110.377 8.06609 110.059 7.64156 109.528 7.21703C108.997 6.89863 108.467 6.58024 107.724 6.4741C106.981 6.26184 106.238 6.26184 105.389 6.26184H92.0164V19.7406H96.0494V15.8137H101.144L106.026 19.7406H111.12L106.663 16.2383L105.601 15.6015H106.45C107.512 15.3892 108.361 15.1769 108.997 14.8585ZM105.177 12.7359H96.0494V9.55194H105.177C105.814 9.55194 106.344 9.65807 106.663 9.87033C106.981 10.0826 107.087 10.5071 107.087 11.1439C107.087 11.6746 106.981 12.0991 106.663 12.3114C106.344 12.5236 105.814 12.7359 105.177 12.7359Z" fill="#85868B"/>
<path d="M125.979 16.3443L117.913 6.15564H113.031V19.6344H117.064V10.9316L123.962 19.6344H127.995L134.894 10.9316V19.6344H138.927V6.15564H134.045L125.979 16.3443Z" fill="#85868B"/>
<path d="M152.618 6.15564H149.752H148.479L139.67 19.6344H144.552L146.144 16.9811H156.12L157.712 19.6344H162.594L153.891 6.15564H152.618ZM147.948 14.2217L151.238 9.02121L154.528 14.2217H147.948Z" fill="#85868B"/>
<path d="M194.964 6.15564H192.099H190.825L182.016 19.6344H186.898L188.49 16.9811H198.467L200.059 19.6344H204.941L196.132 6.15564H194.964ZM190.295 14.2217L193.585 9.02121L196.875 14.2217H190.295Z" fill="#85868B"/>
<path d="M219.375 15.4953H220.224C221.179 15.3892 222.134 15.1769 222.771 14.8585C223.514 14.5401 224.045 14.0095 224.363 13.3727C224.788 12.7359 224.894 11.8868 224.894 10.9317C224.894 10.0826 224.788 9.33967 224.469 8.70288C224.151 8.06609 223.833 7.64156 223.302 7.21703C222.771 6.89863 222.241 6.58024 221.498 6.4741C220.755 6.26184 220.012 6.26184 219.163 6.26184H205.578V19.7406H209.611V15.8137H214.705L219.587 19.7406H224.682L220.224 16.2383L219.375 15.4953ZM209.823 12.7359V9.55194H218.951C219.587 9.55194 220.118 9.65807 220.436 9.87033C220.755 10.0826 220.861 10.5071 220.861 11.1439C220.861 11.6746 220.755 12.0991 220.436 12.3114C220.118 12.5236 219.693 12.6298 218.951 12.6298H209.823V12.7359Z" fill="#85868B"/>
<path d="M161.639 12.7358C161.639 11.7806 161.851 10.8255 162.17 10.0825C162.488 9.23347 163.019 8.49055 163.55 7.95988C164.186 7.32309 164.929 6.89856 165.778 6.58017C166.627 6.26177 167.689 6.15564 168.856 6.15564H181.167V9.55187H169.281C168.113 9.55187 167.264 9.87026 166.627 10.4009C165.991 10.9316 165.672 11.7806 165.672 12.842C165.672 13.9033 165.991 14.7523 166.627 15.283C167.264 15.8137 168.113 16.1321 169.281 16.1321H181.167V19.6344H168.856C167.689 19.6344 166.733 19.5283 165.778 19.2099C164.929 18.8915 164.08 18.467 163.55 17.8302C162.913 17.1934 162.488 16.5566 162.17 15.7075C161.851 14.9646 161.745 14.0094 161.639 13.0542V12.7358Z" fill="#85868B"/>
<path d="M27.0637 3.07783L29.2925 6.04952C29.6109 4.45754 29.8232 2.6533 29.8232 0.74292L27.0637 3.07783Z" fill="url(#paint0_linear_1304_2338)"/>
<path d="M10.4011 14.9647C12.4176 14.7524 14.5402 14.5401 16.6628 14.434C19.3161 14.3279 21.8633 14.3279 24.3044 14.5401L27.8067 12.0991C25.2595 11.7807 22.5001 11.6746 19.7407 11.6746C14.8586 11.6746 10.1888 12.0991 6.36804 12.9481L4.66992 15.9198C4.88219 15.8137 7.00483 15.3892 10.4011 14.9647Z" fill="url(#paint1_linear_1304_2338)"/>
<path d="M36.5096 4.776L39.0568 2.97176C38.9506 2.97176 38.6322 2.86563 38.2077 2.65336C37.0403 2.22883 35.7667 1.91044 34.387 1.59204L36.5096 4.776Z" fill="url(#paint2_linear_1304_2338)"/>
<path d="M26.1086 17.4057L24.3044 14.5401C21.7572 14.3278 19.21 14.3278 16.6628 14.434C14.5402 14.5401 12.4176 14.7524 10.4011 14.9646C7.00483 15.3892 5.30671 15.7076 4.66992 15.9198L7.85388 18.0425C11.3562 17.4057 15.3893 17.0873 19.7407 17.0873C21.9695 17.0873 24.0921 17.1934 26.1086 17.4057Z" fill="url(#paint3_linear_1304_2338)"/>
<path d="M19.2099 2.7594C16.5566 2.7594 13.9033 2.97166 11.3561 3.18393C8.17212 3.50232 5.30655 4.03298 2.54712 4.77591L5.09429 6.79242C9.12731 5.94336 14.0094 5.30657 19.316 5.30657C22.7122 5.30657 26.2146 5.51883 29.2924 6.04949L27.0636 3.07779C26.9575 2.97166 23.7735 2.65327 19.2099 2.7594Z" fill="url(#paint4_linear_1304_2338)"/>
<path d="M36.5095 4.77592C36.5095 8.80894 35.5543 13.0542 33.8562 17.2995C32.4764 20.6957 30.4599 24.1981 28.0189 27.7005C25.7901 30.7783 23.6675 33.2193 22.1816 34.7052C20.5896 36.2971 19.6345 37.2523 19.5283 37.3585V40.4363C20.2712 39.9056 39.0566 25.5778 39.0566 2.97168L36.5095 4.77592Z" fill="url(#paint5_linear_1304_2338)"/>
<path d="M19.5284 37.4645C19.4222 37.3584 18.467 36.5094 16.8751 34.8112C15.2831 33.2193 13.2666 30.8844 11.0378 27.8065C8.59676 24.3042 6.68638 20.9079 5.20053 17.4056C4.98827 16.8749 4.776 16.4504 4.66987 16.0259C3.29015 12.2051 2.54723 8.59663 2.54723 4.98814L5.98244e-05 3.07776C-0.424468 25.2594 18.8916 40.0117 19.5284 40.5424V37.4645Z" fill="url(#paint6_linear_1304_2338)"/>
<path d="M19.5283 34.7052V37.3585C19.6345 37.2524 20.6958 36.2972 22.1816 34.8113C23.6675 33.3255 25.7901 30.7783 28.0189 27.8066C30.4599 24.4104 32.4764 20.908 33.8562 17.4057C35.6604 13.1604 36.5095 8.9151 36.5095 4.88208L34.4929 1.69812C34.3868 3.92689 34.2807 5.62501 33.8562 8.06604C33.6439 9.12736 33.5378 10.0826 33.3255 11.0377C33.2194 11.4623 33.1132 12.0991 32.901 12.842V12.9481C32.6887 13.691 32.4764 14.5401 32.158 15.6014C31.7335 16.875 31.4151 17.6179 31.309 18.1486C26.9576 28.3373 20.059 34.7052 19.5283 34.7052Z" fill="url(#paint7_linear_1304_2338)"/>
<path d="M11.0376 27.8066C13.2664 30.8844 15.389 33.3255 16.8749 34.8113C18.3607 36.4033 19.422 37.3585 19.5282 37.3585V34.7052C18.9975 34.7052 12.2051 28.4434 7.85364 18.0424L4.66968 15.9198C4.88194 16.4505 5.09421 16.875 5.20034 17.4056C6.58006 20.8019 8.59656 24.3042 11.0376 27.8066Z" fill="url(#paint8_linear_1304_2338)"/>
<path d="M6.26174 12.9481C5.73108 11.0377 5.41268 9.76416 4.98816 6.89859L2.54712 4.88208C2.54712 8.49057 3.29004 12.2052 4.66976 15.9198L6.26174 12.9481Z" fill="url(#paint9_linear_1304_2338)"/>
<path d="M24.3042 14.54L26.1084 17.4056C26.7452 15.9198 27.2759 14.1155 27.8066 12.099L24.3042 14.54Z" fill="url(#paint10_linear_1304_2338)"/>
<path d="M2.54717 4.88208C5.20047 4.13915 8.17217 3.50236 11.3561 3.18396C13.9033 2.86557 16.5566 2.75943 19.2099 2.75943C19.5283 2.75943 19.8467 2.75943 20.059 2.75943C24.1981 2.75943 26.9575 3.07783 27.0637 3.07783L29.8231 0.742925C26.6392 0.318396 23.2429 0 19.5283 0C11.8868 0 4.77594 1.27358 0.106132 2.9717H0L2.54717 4.88208Z" fill="url(#paint11_linear_1304_2338)"/>
<path d="M50.5188 33.1132C50.5188 33.6438 50.6249 34.0684 50.7311 34.4929C50.8372 34.9174 51.1556 35.2358 51.474 35.4481C51.7924 35.6603 52.3231 35.8726 52.9598 35.9787C53.5966 36.0849 54.3396 36.191 55.1886 36.191C55.8254 36.191 56.5683 36.191 57.2051 36.0849C57.8419 35.9787 58.5848 35.8726 59.1155 35.7665C59.7523 35.6603 60.283 35.5542 60.8136 35.4481L61.132 36.7217C60.6014 36.8278 59.9646 36.9339 59.3278 37.0401C58.691 37.1462 57.9481 37.2523 57.2051 37.3584C56.4622 37.4646 55.8254 37.4646 55.0825 37.4646C54.0212 37.4646 53.066 37.3584 52.3231 37.1462C51.5801 36.9339 50.9433 36.7217 50.4127 36.2971C49.882 35.9787 49.5636 35.4481 49.3514 34.9174C49.1391 34.3868 49.033 33.75 49.033 32.9009C49.033 32.0518 49.1391 31.5212 49.3514 30.8844C49.5636 30.3537 49.9881 29.8231 50.4127 29.5047C50.9433 29.1863 51.5801 28.8679 52.3231 28.6556C53.066 28.4434 54.0212 28.6556 55.1886 28.6556C55.8254 28.6556 56.5683 28.6556 57.3113 28.7618C58.0542 28.8679 58.691 28.974 59.4339 29.0801C60.0707 29.1863 60.7075 29.2924 61.2381 29.5047L60.8136 30.7783C60.283 30.6721 59.7523 30.566 59.1155 30.4599C58.4787 30.3537 57.8419 30.2476 57.2051 30.1415C56.5683 30.0353 55.8254 30.0353 55.1886 30.0353C54.3396 30.0353 53.5966 30.1415 52.9598 30.2476C52.3231 30.3537 51.8985 30.566 51.474 30.8844C51.0495 31.2028 50.8372 31.5212 50.7311 31.8396C50.6249 32.158 50.5188 32.5825 50.5188 33.1132Z" fill="#85868B"/>
<path d="M70.79 37.4645H69.198V28.7617H77.5824C78.1131 28.7617 78.6438 28.7617 78.9622 28.8679C79.3867 28.974 79.7051 29.1862 80.0235 29.3985C80.3419 29.6108 80.5541 29.9292 80.6603 30.2476C80.7664 30.566 80.8725 31.0966 80.8725 31.5212C80.8725 32.1579 80.7664 32.6886 80.5541 33.007C80.3419 33.4315 80.0235 33.7499 79.4928 33.9622C79.0683 34.1745 78.4315 34.2806 77.7947 34.2806H76.8395L77.5824 34.8112L80.6603 37.2523H78.6438L75.0353 34.2806H70.6838V37.4645H70.79ZM70.79 30.1414V33.3254H77.4763C78.1131 33.3254 78.6438 33.2193 78.856 33.007C79.1744 32.7947 79.2805 32.3702 79.2805 31.7334C79.2805 31.2028 79.1744 30.7782 78.856 30.4598C78.5376 30.2476 78.1131 30.1414 77.4763 30.1414H70.79Z" fill="#85868B"/>
<path d="M93.3961 34.0684L87.5588 28.8679H89.5753L94.2452 32.9009L98.915 28.8679H100.931L95.0942 34.1745V37.5708H93.3961V34.0684Z" fill="#85868B"/>
<path d="M108.042 37.4645V28.7617H116.427C116.958 28.7617 117.488 28.7617 117.807 28.8679C118.231 28.974 118.55 29.1862 118.868 29.3985C119.186 29.6108 119.399 29.9292 119.505 30.2476C119.611 30.566 119.717 30.9905 119.717 31.5212C119.717 32.1579 119.611 32.7947 119.292 33.2193C119.08 33.6438 118.656 33.9622 118.125 34.1745C117.594 34.3867 117.064 34.4928 116.321 34.4928H109.422V37.3584H108.042V37.4645ZM116.321 30.1414H109.634V33.2193H116.321C116.958 33.2193 117.488 33.1131 117.7 32.9009C118.019 32.6886 118.125 32.2641 118.125 31.7334C118.125 31.2028 118.019 30.7782 117.7 30.566C117.382 30.3537 117.064 30.1414 116.321 30.1414Z" fill="#85868B"/>
<path d="M132.453 30.1414H127.252V28.7617H139.245V30.1414H134.045V37.4645H132.453V30.1414Z" fill="#85868B"/>
<path d="M153.467 37.6769C151.875 37.6769 150.601 37.5707 149.646 37.2523C148.585 36.9339 147.842 36.4033 147.417 35.7665C146.993 35.1297 146.675 34.2806 146.675 33.2193C146.675 32.158 146.887 31.3089 147.417 30.6721C147.948 30.0354 148.691 29.5047 149.646 29.1863C150.601 28.8679 151.981 28.6556 153.467 28.6556C155.059 28.6556 156.333 28.8679 157.288 29.1863C158.243 29.5047 159.092 30.0354 159.517 30.6721C159.941 31.3089 160.259 32.158 160.259 33.2193C160.259 34.2806 160.047 35.1297 159.517 35.7665C158.986 36.4033 158.243 36.9339 157.288 37.2523C156.333 37.4646 155.059 37.6769 153.467 37.6769ZM153.467 36.2971C154.422 36.2971 155.271 36.191 155.908 36.0849C156.545 35.9788 157.076 35.7665 157.5 35.5542C157.925 35.342 158.243 34.9174 158.349 34.599C158.561 34.1745 158.667 33.75 158.667 33.2193C158.667 32.6887 158.561 32.158 158.349 31.8396C158.137 31.4151 157.818 31.0967 157.5 30.8844C157.076 30.6721 156.545 30.4599 155.908 30.3538C155.271 30.2476 154.422 30.1415 153.467 30.1415C152.193 30.1415 151.132 30.2476 150.283 30.4599C149.54 30.6721 148.903 30.9905 148.585 31.5212C148.267 31.9457 148.054 32.5825 148.054 33.3254C148.054 34.0684 148.267 34.599 148.585 35.1297C148.903 35.5542 149.434 35.9788 150.283 36.191C151.132 36.191 152.193 36.2971 153.467 36.2971Z" fill="#85868B"/>
</g>
<defs>
<linearGradient id="paint0_linear_1304_2338" x1="26.6804" y1="-0.371344" x2="40.9228" y2="18.313" gradientUnits="userSpaceOnUse">
<stop stop-color="#434545"/>
<stop offset="0.0545291" stop-color="#525454"/>
<stop offset="0.1594" stop-color="#797A7A"/>
<stop offset="0.3028" stop-color="#B8B8B7"/>
<stop offset="0.3593" stop-color="#D3D2D1"/>
<stop offset="0.7489" stop-color="#4E4F4D"/>
<stop offset="1" stop-color="#D3D2D1"/>
</linearGradient>
<linearGradient id="paint1_linear_1304_2338" x1="18.2965" y1="49.3323" x2="15.7041" y2="5.19044" gradientUnits="userSpaceOnUse">
<stop offset="0.030303" stop-color="#6E6E6E"/>
<stop offset="0.0885107" stop-color="#929191"/>
<stop offset="0.1212" stop-color="#A19F9F"/>
<stop offset="0.2511" stop-color="#9B9B9B"/>
<stop offset="0.3333" stop-color="#8A8A8A"/>
<stop offset="0.4113" stop-color="#A19F9F"/>
<stop offset="0.5628" stop-color="#9B9B9B"/>
<stop offset="0.778" stop-color="#8B8B8B"/>
<stop offset="0.7836" stop-color="#8A8A8A"/>
<stop offset="0.8485" stop-color="#D3D2D1"/>
<stop offset="1" stop-color="#9B9B9B"/>
</linearGradient>
<linearGradient id="paint2_linear_1304_2338" x1="41.4321" y1="-5.88622" x2="28.8623" y2="16.1637" gradientUnits="userSpaceOnUse">
<stop stop-color="#434545"/>
<stop offset="0.0545291" stop-color="#525454"/>
<stop offset="0.1594" stop-color="#797A7A"/>
<stop offset="0.3028" stop-color="#B8B8B7"/>
<stop offset="0.3593" stop-color="#D3D2D1"/>
<stop offset="0.7489" stop-color="#4E4F4D"/>
<stop offset="1" stop-color="#D3D2D1"/>
</linearGradient>
<linearGradient id="paint3_linear_1304_2338" x1="15.3945" y1="-13.8747" x2="15.3945" y2="40.5106" gradientUnits="userSpaceOnUse">
<stop offset="0.030303" stop-color="#6E6E6E"/>
<stop offset="0.0885107" stop-color="#929191"/>
<stop offset="0.1212" stop-color="#A19F9F"/>
<stop offset="0.2511" stop-color="#3D3E3D"/>
<stop offset="0.3333" stop-color="#8A8A8A"/>
<stop offset="0.4113" stop-color="#A19F9F"/>
<stop offset="0.4523" stop-color="#7D7C7C"/>
<stop offset="0.4991" stop-color="#5A5A5A"/>
<stop offset="0.5376" stop-color="#454645"/>
<stop offset="0.5628" stop-color="#3D3E3D"/>
<stop offset="0.6227" stop-color="#4E4E4E"/>
<stop offset="0.7402" stop-color="#797979"/>
<stop offset="0.7836" stop-color="#8A8A8A"/>
<stop offset="0.8485" stop-color="#D3D2D1"/>
<stop offset="1" stop-color="#3D3E3D"/>
</linearGradient>
<linearGradient id="paint4_linear_1304_2338" x1="14.5088" y1="-12.8524" x2="19.3746" y2="51.2588" gradientUnits="userSpaceOnUse">
<stop offset="0.030303" stop-color="#9B9999"/>
<stop offset="0.1212" stop-color="#A19F9F"/>
<stop offset="0.1983" stop-color="#20201F"/>
<stop offset="0.3333" stop-color="#787777"/>
<stop offset="0.4113" stop-color="#A19F9F"/>
<stop offset="0.4254" stop-color="#908E8E"/>
<stop offset="0.4701" stop-color="#605F5F"/>
<stop offset="0.5095" stop-color="#3D3D3C"/>
<stop offset="0.5418" stop-color="#282827"/>
<stop offset="0.5628" stop-color="#20201F"/>
<stop offset="0.6163" stop-color="#313030"/>
<stop offset="0.7212" stop-color="#5B5B5A"/>
<stop offset="0.7836" stop-color="#787777"/>
<stop offset="0.8485" stop-color="#D3D2D1"/>
<stop offset="1" stop-color="#20201F"/>
</linearGradient>
<linearGradient id="paint5_linear_1304_2338" x1="29.2851" y1="-4.27596" x2="29.2851" y2="44.9085" gradientUnits="userSpaceOnUse">
<stop stop-color="#5F5F60"/>
<stop offset="0.0524362" stop-color="#6E6E6F"/>
<stop offset="0.1533" stop-color="#959595"/>
<stop offset="0.2888" stop-color="#D3D2D1"/>
<stop offset="0.6363" stop-color="#2E2E2E"/>
</linearGradient>
<linearGradient id="paint6_linear_1304_2338" x1="9.76032" y1="-4.27898" x2="9.76032" y2="44.9155" gradientUnits="userSpaceOnUse">
<stop stop-color="#5F5F60"/>
<stop offset="0.0524362" stop-color="#6E6E6F"/>
<stop offset="0.1533" stop-color="#959595"/>
<stop offset="0.2888" stop-color="#D3D2D1"/>
<stop offset="0.6363" stop-color="#2E2E2E"/>
</linearGradient>
<linearGradient id="paint7_linear_1304_2338" x1="28.0182" y1="25.5935" x2="28.0182" y2="-65.8235" gradientUnits="userSpaceOnUse">
<stop stop-color="#9D9C9C"/>
<stop offset="0.0551258" stop-color="#8E8D8D"/>
<stop offset="0.1611" stop-color="#676666"/>
<stop offset="0.2683" stop-color="#393838"/>
<stop offset="0.4485" stop-color="#D3D2D1"/>
<stop offset="0.7489" stop-color="#393838"/>
<stop offset="1" stop-color="#A3A3A3"/>
</linearGradient>
<linearGradient id="paint8_linear_1304_2338" x1="12.0797" y1="25.5702" x2="12.0797" y2="-66.0207" gradientUnits="userSpaceOnUse">
<stop stop-color="#9D9C9C"/>
<stop offset="0.0551258" stop-color="#8E8D8D"/>
<stop offset="0.1611" stop-color="#676666"/>
<stop offset="0.2683" stop-color="#393838"/>
<stop offset="0.4485" stop-color="#D3D2D1"/>
<stop offset="0.7489" stop-color="#393838"/>
<stop offset="1" stop-color="#A3A3A3"/>
</linearGradient>
<linearGradient id="paint9_linear_1304_2338" x1="4.40881" y1="25.6035" x2="4.40881" y2="-65.9143" gradientUnits="userSpaceOnUse">
<stop stop-color="#9D9C9C"/>
<stop offset="0.0551258" stop-color="#8E8D8D"/>
<stop offset="0.1611" stop-color="#676666"/>
<stop offset="0.2683" stop-color="#393838"/>
<stop offset="0.4485" stop-color="#D3D2D1"/>
<stop offset="0.7489" stop-color="#393838"/>
<stop offset="1" stop-color="#A3A3A3"/>
</linearGradient>
<linearGradient id="paint10_linear_1304_2338" x1="21.9184" y1="15.0561" x2="60.8309" y2="12.5366" gradientUnits="userSpaceOnUse">
<stop stop-color="#434545"/>
<stop offset="0.0545291" stop-color="#525454"/>
<stop offset="0.1594" stop-color="#797A7A"/>
<stop offset="0.3028" stop-color="#B8B8B7"/>
<stop offset="0.3593" stop-color="#D3D2D1"/>
<stop offset="0.7489" stop-color="#4E4F4D"/>
<stop offset="1" stop-color="#D3D2D1"/>
</linearGradient>
<linearGradient id="paint11_linear_1304_2338" x1="17.8451" y1="45.584" x2="14.2661" y2="-7.87753" gradientUnits="userSpaceOnUse">
<stop offset="0.030303" stop-color="#878686"/>
<stop offset="0.0601038" stop-color="#A8A6A6"/>
<stop offset="0.1002" stop-color="#CFCCCC"/>
<stop offset="0.1212" stop-color="#DEDBDB"/>
<stop offset="0.2511" stop-color="#9B9B9B"/>
<stop offset="0.3333" stop-color="#B2AFB0"/>
<stop offset="0.4113" stop-color="#DEDBDB"/>
<stop offset="0.4163" stop-color="#DBD8D8"/>
<stop offset="0.4784" stop-color="#B8B7B7"/>
<stop offset="0.5295" stop-color="#A3A2A2"/>
<stop offset="0.5628" stop-color="#9B9B9B"/>
<stop offset="0.7293" stop-color="#ABA9AA"/>
<stop offset="0.7836" stop-color="#B2AFB0"/>
<stop offset="0.8485" stop-color="#E3E2E1"/>
<stop offset="1" stop-color="#9B9B9B"/>
</linearGradient>
<clipPath id="clip0_1304_2338">
<rect width="225" height="40.4363" fill="white"/>
</clipPath>
</defs>
</svg>
