<svg width="225" height="40" viewBox="0 0 225 40" fill="none" xmlns="http://www.w3.org/2000/svg">
<g clip-path="url(#clip0_1304_2429)">
<path d="M48.9253 26.8833H52.9569V22.4273H66.6786V19.2444H52.9569V16.7689H67.0322V13.3031H48.9253V26.8833Z" fill="#85868B"/>
<path d="M85.7051 13.7982C83.6539 13.2324 81.4612 12.9495 79.3393 13.0202C77.2174 12.9495 75.0248 13.2324 72.9736 13.7982C71.559 14.1519 70.2859 15.0006 69.3664 16.1323C68.5883 17.3347 68.164 18.6786 68.2347 20.164C68.164 21.5786 68.5883 22.9932 69.3664 24.1249C70.2859 25.2565 71.559 26.1053 72.9736 26.4589C75.0248 27.0248 77.2174 27.3077 79.3393 27.237C81.4612 27.3077 83.6539 27.0248 85.7051 26.4589C87.1197 26.1053 88.3928 25.2565 89.3123 24.1249C90.1611 22.9932 90.5147 21.5786 90.5147 20.164C90.5854 18.7494 90.1611 17.3347 89.3123 16.1323C88.3928 14.9299 87.1197 14.1519 85.7051 13.7982ZM85.988 21.7908C85.705 22.2859 85.3514 22.6395 84.8563 22.9224C84.2197 23.2761 83.4417 23.4883 82.7344 23.559C81.6027 23.7005 80.471 23.7712 79.3393 23.7712C77.9247 23.7712 76.5101 23.7005 75.0955 23.4175C74.2467 23.2761 73.4687 22.8517 72.9029 22.2859C72.4785 21.6493 72.1956 20.942 72.2663 20.164C72.1956 19.3859 72.4785 18.6786 72.9029 18.042C73.4687 17.4055 74.2467 17.0518 75.0955 16.9104C76.5101 16.6274 77.9247 16.5567 79.3393 16.5567C80.471 16.5567 81.6027 16.6274 82.7344 16.7689C83.4417 16.8396 84.2197 17.0518 84.8563 17.4055C85.3514 17.6177 85.705 18.042 85.988 18.5372C86.2002 19.0323 86.3416 19.6688 86.3416 20.2347C86.3416 20.6591 86.2709 21.2249 85.988 21.7908Z" fill="#85868B"/>
<path d="M109.258 22.0736C109.966 21.72 110.531 21.2249 110.885 20.5176C111.309 19.7396 111.451 18.8908 111.451 18.042C111.451 17.264 111.309 16.486 111.027 15.7787C110.814 15.2128 110.39 14.7177 109.895 14.3641C109.329 14.0104 108.763 13.7275 108.056 13.586C107.278 13.4446 106.5 13.3031 105.722 13.3031H92.1416V26.8833H96.1732V22.9224H101.337L106.217 26.8833H111.309L106.853 23.3468L105.793 22.7102H106.641C107.561 22.6395 108.41 22.4273 109.258 22.0736ZM105.368 19.9517H96.244V16.7689H105.368C105.863 16.6982 106.358 16.8396 106.853 17.1225C107.207 17.4762 107.349 17.9006 107.278 18.3957C107.349 18.8201 107.136 19.2444 106.853 19.5981C106.358 19.8103 105.863 19.9517 105.368 19.9517Z" fill="#85868B"/>
<path d="M126.234 23.559L118.17 13.3031H113.219V26.8833H117.251V18.1128L124.182 26.8833H128.285L135.146 18.1128V26.8833H139.177V13.3031H134.368L126.234 23.559Z" fill="#85868B"/>
<path d="M152.97 13.3031H148.797L139.955 26.8833H144.836L146.463 24.2663H156.506L158.133 26.8833H163.013L154.243 13.3031H152.97ZM148.231 21.4371L151.484 16.203L154.738 21.4371H148.231Z" fill="#85868B"/>
<path d="M195.478 13.3031H191.305L182.464 26.8833H187.344L188.971 24.2663H199.015L200.642 26.8833H205.522L196.681 13.3031H195.478ZM190.74 21.4371L193.993 16.203L197.247 21.4371H190.74Z" fill="#85868B"/>
<path d="M219.951 22.7102H220.8C221.719 22.6395 222.568 22.4273 223.346 22.0736C224.054 21.72 224.619 21.2249 224.973 20.5176C225.397 19.7396 225.539 18.8908 225.539 18.042C225.539 17.264 225.397 16.486 225.115 15.7787C224.902 15.2128 224.478 14.7177 223.983 14.3641C223.417 14.0104 222.851 13.7275 222.215 13.586C221.437 13.4446 220.659 13.3031 219.88 13.3031H206.3V26.8126H210.332V22.8517H215.495L220.376 26.8126H225.468L221.012 23.2761L219.951 22.7102ZM210.403 19.881V16.7689H219.527C220.022 16.6982 220.517 16.8396 221.012 17.1225C221.366 17.4762 221.507 17.9006 221.437 18.3957C221.507 18.8201 221.295 19.2444 221.012 19.5981C220.588 19.881 220.093 20.0225 219.527 19.9517L210.403 19.881Z" fill="#85868B"/>
<path d="M162.023 19.9517C162.023 19.0322 162.164 18.1128 162.518 17.264C162.801 16.4152 163.296 15.7079 163.933 15.1421C164.569 14.5055 165.347 14.0811 166.196 13.7982C167.186 13.4446 168.247 13.3031 169.237 13.3031H181.615V16.8396H169.662C168.672 16.7689 167.752 17.0518 166.974 17.6884C166.337 18.3249 165.984 19.2444 166.055 20.1639C165.984 21.0834 166.337 22.0029 166.974 22.6395C167.752 23.2761 168.672 23.559 169.662 23.4883H181.615V27.0248H169.237C168.176 27.0248 167.186 26.8833 166.196 26.5297C165.347 26.2467 164.569 25.7516 163.933 25.1858C163.296 24.6199 162.801 23.8419 162.518 23.0639C162.235 22.2151 162.023 21.2956 162.023 20.3761V19.9517Z" fill="#85868B"/>
<path d="M26.6455 3.25934L28.7674 6.15928C29.0503 4.46175 29.2625 2.76423 29.3333 0.995972L26.6455 3.25934Z" fill="url(#paint0_linear_1304_2429)"/>
<path d="M10.5896 14.7885C12.5701 14.5055 14.6213 14.3641 16.6017 14.2933C19.0773 14.1519 21.5528 14.2226 24.0284 14.3641L27.3527 12.03C24.7357 11.7471 22.1187 11.6056 19.5017 11.6056C15.1871 11.6056 10.8018 11.9592 6.55802 12.808L5.00195 15.7079C5.21414 15.6372 7.33605 15.2128 10.5896 14.7885Z" fill="url(#paint1_linear_1304_2429)"/>
<path d="M35.7695 5.02761L38.2451 3.33008C38.1743 3.33008 37.8914 3.18862 37.467 3.04716C36.2646 2.62278 35.0622 2.26913 33.7891 1.98621L35.7695 5.02761Z" fill="url(#paint2_linear_1304_2429)"/>
<path d="M25.7966 17.1225L24.0284 14.364C21.5528 14.2226 19.0773 14.2226 16.6017 14.2933C14.5505 14.364 12.5701 14.5762 10.5896 14.7884C8.67992 15.0006 6.84094 15.2835 5.00195 15.7079L8.11408 17.7591C11.8628 17.1225 15.6822 16.8396 19.5017 16.8396C21.6943 16.8396 23.7455 16.9103 25.7966 17.1225Z" fill="url(#paint3_linear_1304_2429)"/>
<path d="M19.0772 2.97644C16.531 2.97644 13.9847 3.18863 11.5091 3.47155C8.60917 3.75447 5.77996 4.32031 3.02148 5.02762L5.49704 6.93733C10.0238 5.94711 14.6212 5.52273 19.2894 5.52273C22.4723 5.52273 25.7259 5.73492 28.9087 6.1593L26.7868 3.25936C24.1698 3.04717 21.6235 2.97644 19.0772 2.97644Z" fill="url(#paint4_linear_1304_2429)"/>
<path d="M35.7697 5.02766C35.699 9.20074 34.8502 13.3031 33.1527 17.1933C31.6673 20.7298 29.7576 24.1248 27.4943 27.1662C25.7967 29.571 23.887 31.8344 21.8358 33.9563C20.3505 35.5124 19.3603 36.4319 19.2896 36.5026V39.4733C20.0676 38.8367 38.2453 25.0443 38.2453 3.2594L35.7697 5.02766Z" fill="url(#paint5_linear_1304_2429)"/>
<path d="M19.3602 36.5026C19.2895 36.4319 18.37 35.5124 16.8139 33.9563C14.7627 31.8344 12.853 29.571 11.1555 27.1662C8.89211 24.0541 7.05312 20.659 5.56779 17.1225C5.3556 16.6274 5.21414 16.203 5.00195 15.7079C3.7288 12.3129 3.0215 8.70563 2.95077 5.02766L0.545943 3.2594C0.121562 24.6199 18.7943 38.8367 19.3602 39.3318V36.5026Z" fill="url(#paint6_linear_1304_2429)"/>
<path d="M19.3601 33.8856V36.5026C19.5016 36.3612 20.4918 35.5124 21.9064 34.0271C23.9576 31.9051 25.7966 29.6418 27.5648 27.2369C29.8282 24.1248 31.7379 20.8005 33.2232 17.1933C34.85 13.3738 35.7695 9.20074 35.8403 5.02766L33.7891 1.91553C33.7183 3.9667 33.5062 6.01788 33.1525 7.99833C33.011 9.05928 32.7989 9.97877 32.5867 10.8983C32.5159 11.3226 32.3745 11.8885 32.1623 12.5958C32.1623 12.6665 32.1623 12.6665 32.1623 12.7373C31.9501 13.4446 31.7379 14.2933 31.3842 15.2128C30.9599 16.4152 30.6769 17.1933 30.5355 17.6884C26.6453 27.6613 19.8552 33.8856 19.3601 33.8856Z" fill="url(#paint7_linear_1304_2429)"/>
<path d="M11.2262 27.1662C12.9237 29.571 14.8335 31.8344 16.8846 33.9563C18.2992 35.4416 19.3602 36.3611 19.4309 36.4318V33.8856C18.9358 33.8856 12.3579 27.8735 8.18481 17.7591L5.00195 15.7079C5.14341 16.203 5.3556 16.6981 5.56779 17.1225C7.05313 20.659 8.96285 24.0541 11.2262 27.1662Z" fill="url(#paint8_linear_1304_2429)"/>
<path d="M6.62873 12.8079C5.99215 10.8982 5.6385 8.91775 5.42631 6.9373L3.02148 5.02759C3.09221 8.70556 3.72879 12.3128 5.00193 15.7079L6.62873 12.8079Z" fill="url(#paint9_linear_1304_2429)"/>
<path d="M24.0283 14.364L25.7966 17.1225C26.4331 15.425 26.999 13.7274 27.4234 12.0299L24.0283 14.364Z" fill="url(#paint10_linear_1304_2429)"/>
<path d="M2.95073 5.02764C5.70921 4.24961 8.53842 3.7545 11.4384 3.47158C13.9846 3.18865 16.4602 3.04719 19.0065 3.04719H19.8553C23.8161 3.04719 26.5039 3.33012 26.5746 3.33012L29.2624 1.13748C25.9381 0.642366 22.6845 0.430176 19.3601 0.430176C12.0042 0.430176 5.07263 1.63259 0.616629 3.33012L0.545898 3.40085L2.95073 5.02764Z" fill="url(#paint11_linear_1304_2429)"/>
</g>
<defs>
<linearGradient id="paint0_linear_1304_2429" x1="26.2834" y1="0.00348519" x2="40.0334" y2="18.0397" gradientUnits="userSpaceOnUse">
<stop stop-color="#434545"/>
<stop offset="0.05" stop-color="#525454"/>
<stop offset="0.16" stop-color="#797A7A"/>
<stop offset="0.3" stop-color="#B8B8B7"/>
<stop offset="0.36" stop-color="#D3D2D1"/>
<stop offset="0.75" stop-color="#4E4F4D"/>
<stop offset="1" stop-color="#D3D2D1"/>
</linearGradient>
<linearGradient id="paint1_linear_1304_2429" x1="18.1993" y1="47.9685" x2="15.6954" y2="5.36061" gradientUnits="userSpaceOnUse">
<stop offset="0.03" stop-color="#6E6E6E"/>
<stop offset="0.09" stop-color="#929191"/>
<stop offset="0.12" stop-color="#A19F9F"/>
<stop offset="0.25" stop-color="#9B9B9B"/>
<stop offset="0.33" stop-color="#8A8A8A"/>
<stop offset="0.41" stop-color="#A19F9F"/>
<stop offset="0.56" stop-color="#9B9B9B"/>
<stop offset="0.78" stop-color="#8A8A8A"/>
<stop offset="0.85" stop-color="#D3D2D1"/>
<stop offset="1" stop-color="#9B9B9B"/>
</linearGradient>
<linearGradient id="paint2_linear_1304_2429" x1="40.5465" y1="-5.33282" x2="28.4092" y2="15.9499" gradientUnits="userSpaceOnUse">
<stop stop-color="#434545"/>
<stop offset="0.05" stop-color="#525454"/>
<stop offset="0.16" stop-color="#797A7A"/>
<stop offset="0.3" stop-color="#B8B8B7"/>
<stop offset="0.36" stop-color="#D3D2D1"/>
<stop offset="0.75" stop-color="#4E4F4D"/>
<stop offset="1" stop-color="#D3D2D1"/>
</linearGradient>
<linearGradient id="paint3_linear_1304_2429" x1="15.3958" y1="-13.044" x2="15.3958" y2="39.452" gradientUnits="userSpaceOnUse">
<stop offset="0.03" stop-color="#6E6E6E"/>
<stop offset="0.09" stop-color="#929191"/>
<stop offset="0.12" stop-color="#A19F9F"/>
<stop offset="0.25" stop-color="#3D3E3D"/>
<stop offset="0.33" stop-color="#8A8A8A"/>
<stop offset="0.41" stop-color="#A19F9F"/>
<stop offset="0.45" stop-color="#7D7C7C"/>
<stop offset="0.5" stop-color="#5A5A5A"/>
<stop offset="0.54" stop-color="#454645"/>
<stop offset="0.56" stop-color="#3D3E3D"/>
<stop offset="0.62" stop-color="#4E4E4E"/>
<stop offset="0.74" stop-color="#797979"/>
<stop offset="0.78" stop-color="#8A8A8A"/>
<stop offset="0.85" stop-color="#D3D2D1"/>
<stop offset="1" stop-color="#3D3E3D"/>
</linearGradient>
<linearGradient id="paint4_linear_1304_2429" x1="14.5618" y1="-12.0617" x2="19.2582" y2="49.8273" gradientUnits="userSpaceOnUse">
<stop offset="0.03" stop-color="#9B9999"/>
<stop offset="0.12" stop-color="#A19F9F"/>
<stop offset="0.2" stop-color="#20201F"/>
<stop offset="0.33" stop-color="#787777"/>
<stop offset="0.41" stop-color="#A19F9F"/>
<stop offset="0.43" stop-color="#908E8E"/>
<stop offset="0.47" stop-color="#605F5F"/>
<stop offset="0.51" stop-color="#3D3D3C"/>
<stop offset="0.54" stop-color="#282827"/>
<stop offset="0.56" stop-color="#20201F"/>
<stop offset="0.62" stop-color="#313030"/>
<stop offset="0.72" stop-color="#5C5B5B"/>
<stop offset="0.78" stop-color="#787777"/>
<stop offset="0.85" stop-color="#D3D2D1"/>
<stop offset="1" stop-color="#20201F"/>
</linearGradient>
<linearGradient id="paint5_linear_1304_2429" x1="28.7886" y1="-3.77826" x2="28.7886" y2="43.6959" gradientUnits="userSpaceOnUse">
<stop stop-color="#5F5F60"/>
<stop offset="0.05" stop-color="#6E6E6F"/>
<stop offset="0.15" stop-color="#959595"/>
<stop offset="0.29" stop-color="#D3D2D1"/>
<stop offset="0.64" stop-color="#2E2E2E"/>
</linearGradient>
<linearGradient id="paint6_linear_1304_2429" x1="9.97832" y1="-3.78533" x2="9.97832" y2="43.7029" gradientUnits="userSpaceOnUse">
<stop stop-color="#5F5F60"/>
<stop offset="0.05" stop-color="#6E6E6F"/>
<stop offset="0.15" stop-color="#959595"/>
<stop offset="0.29" stop-color="#D3D2D1"/>
<stop offset="0.64" stop-color="#2E2E2E"/>
</linearGradient>
<linearGradient id="paint7_linear_1304_2429" x1="27.6073" y1="25.0514" x2="27.6073" y2="-63.1917" gradientUnits="userSpaceOnUse">
<stop stop-color="#9D9C9C"/>
<stop offset="0.06" stop-color="#8E8D8D"/>
<stop offset="0.16" stop-color="#676666"/>
<stop offset="0.27" stop-color="#393838"/>
<stop offset="0.45" stop-color="#D3D2D1"/>
<stop offset="0.75" stop-color="#393838"/>
<stop offset="1" stop-color="#A3A3A3"/>
</linearGradient>
<linearGradient id="paint8_linear_1304_2429" x1="12.2058" y1="25.0301" x2="12.2058" y2="-63.3827" gradientUnits="userSpaceOnUse">
<stop stop-color="#9D9C9C"/>
<stop offset="0.06" stop-color="#8E8D8D"/>
<stop offset="0.16" stop-color="#676666"/>
<stop offset="0.27" stop-color="#393838"/>
<stop offset="0.45" stop-color="#D3D2D1"/>
<stop offset="0.75" stop-color="#393838"/>
<stop offset="1" stop-color="#A3A3A3"/>
</linearGradient>
<linearGradient id="paint9_linear_1304_2429" x1="4.80035" y1="25.0655" x2="4.80035" y2="-63.2837" gradientUnits="userSpaceOnUse">
<stop stop-color="#9D9C9C"/>
<stop offset="0.06" stop-color="#8E8D8D"/>
<stop offset="0.16" stop-color="#676666"/>
<stop offset="0.27" stop-color="#393838"/>
<stop offset="0.45" stop-color="#D3D2D1"/>
<stop offset="0.75" stop-color="#393838"/>
<stop offset="1" stop-color="#A3A3A3"/>
</linearGradient>
<linearGradient id="paint10_linear_1304_2429" x1="21.7" y1="14.8601" x2="59.2648" y2="12.427" gradientUnits="userSpaceOnUse">
<stop stop-color="#434545"/>
<stop offset="0.05" stop-color="#525454"/>
<stop offset="0.16" stop-color="#797A7A"/>
<stop offset="0.3" stop-color="#B8B8B7"/>
<stop offset="0.36" stop-color="#D3D2D1"/>
<stop offset="0.75" stop-color="#4E4F4D"/>
<stop offset="1" stop-color="#D3D2D1"/>
</linearGradient>
<linearGradient id="paint11_linear_1304_2429" x1="17.7569" y1="44.3545" x2="14.3053" y2="-7.25735" gradientUnits="userSpaceOnUse">
<stop offset="0.03" stop-color="#878686"/>
<stop offset="0.06" stop-color="#A8A6A6"/>
<stop offset="0.1" stop-color="#CFCCCC"/>
<stop offset="0.12" stop-color="#DEDBDB"/>
<stop offset="0.25" stop-color="#9B9B9B"/>
<stop offset="0.33" stop-color="#B2AFB0"/>
<stop offset="0.41" stop-color="#DEDBDB"/>
<stop offset="0.42" stop-color="#DBD8D8"/>
<stop offset="0.48" stop-color="#B8B7B7"/>
<stop offset="0.53" stop-color="#A3A2A2"/>
<stop offset="0.56" stop-color="#9B9B9B"/>
<stop offset="0.73" stop-color="#ABA9AA"/>
<stop offset="0.78" stop-color="#B2AFB0"/>
<stop offset="0.85" stop-color="#E3E2E1"/>
<stop offset="1" stop-color="#9B9B9B"/>
</linearGradient>
<clipPath id="clip0_1304_2429">
<rect width="225" height="39.0431" fill="white" transform="translate(0.538818 0.430176)"/>
</clipPath>
</defs>
</svg>
