<svg width="225" height="40" viewBox="0 0 225 40" fill="none" xmlns="http://www.w3.org/2000/svg">
<g clip-path="url(#clip0_1304_2394)">
<path d="M48.9883 19.6229H53.0105V15.208H66.6478V12.0348H53.0105V9.55142H67.0193V6.10229H48.9883V19.6229Z" fill="#85868B"/>
<path d="M85.5808 6.57992C83.9571 6.08112 81.8452 5.82642 79.2557 5.82642C76.6768 5.82642 74.5649 6.08112 72.9305 6.57992C71.2961 7.07872 70.0863 7.85344 69.3116 8.88288C68.5368 9.91231 68.1548 11.2389 68.1548 12.8733C68.1548 14.4864 68.5368 15.813 69.3116 16.853C70.0863 17.8931 71.2961 18.6572 72.9305 19.1666C74.5649 19.6654 76.6768 19.9201 79.2557 19.9201C81.8452 19.9201 83.9571 19.6654 85.5808 19.1666C87.2046 18.6678 88.4144 17.8931 89.1892 16.853C89.9639 15.813 90.3566 14.4864 90.3566 12.8733C90.3566 11.2495 89.9639 9.92292 89.1892 8.88288C88.4038 7.84283 87.2046 7.07872 85.5808 6.57992ZM85.9205 14.5182C85.6976 14.9746 85.3155 15.346 84.7955 15.6326C84.2649 15.9191 83.5538 16.1207 82.6411 16.2587C81.7391 16.3861 80.6141 16.4603 79.2663 16.4603C77.4515 16.4603 76.04 16.3436 75.0106 16.1101C73.9812 15.8766 73.2595 15.4946 72.835 14.9746C72.4105 14.4439 72.1876 13.7435 72.1876 12.8733C72.1876 12.003 72.3999 11.3026 72.835 10.7719C73.2595 10.2413 73.9918 9.85924 75.0106 9.63638C76.04 9.4029 77.4515 9.28616 79.2663 9.28616C80.6141 9.28616 81.7391 9.34984 82.6411 9.47719C83.5432 9.60454 84.2649 9.80618 84.7955 10.0927C85.3261 10.3793 85.6976 10.7507 85.9205 11.2071C86.1433 11.6634 86.2601 12.2259 86.2601 12.8839C86.2494 13.51 86.1433 14.0619 85.9205 14.5182Z" fill="#85868B"/>
<path d="M109.045 14.8153C109.757 14.4651 110.298 13.9557 110.669 13.2977C111.041 12.6397 111.232 11.8119 111.232 10.8143C111.232 9.93348 111.094 9.17998 110.828 8.57506C110.553 7.97013 110.17 7.48195 109.672 7.13173C109.173 6.7709 108.568 6.51619 107.878 6.34639C107.188 6.17658 106.424 6.10229 105.586 6.10229H92.0439V19.6229H96.0662V15.6962H101.203L106.063 19.6229H111.115L106.679 16.1313L105.607 15.4733L106.477 15.4521C107.475 15.3778 108.334 15.1655 109.045 14.8153ZM105.182 12.6822H96.0662V9.55142H105.182C105.862 9.55142 106.339 9.66816 106.626 9.89103C106.912 10.1139 107.061 10.5278 107.061 11.1433C107.061 11.6952 106.912 12.0985 106.626 12.332C106.339 12.5654 105.862 12.6822 105.182 12.6822Z" fill="#85868B"/>
<path d="M126.015 16.3117L117.928 6.10229H113.036V19.6229H117.058V10.878L123.935 19.6229H128L134.877 10.878V19.6229H138.91V6.10229H134.091L126.015 16.3117Z" fill="#85868B"/>
<path d="M152.643 6.10229H149.724H148.493L139.695 19.6229H144.534L146.169 17.0015H156.155L157.79 19.6229H162.672L153.874 6.10229H152.643ZM147.92 14.2104L151.167 9.01018L154.415 14.2104H147.92Z" fill="#85868B"/>
<path d="M194.966 6.10229H192.048H190.816L182.019 19.6229H186.858L188.492 17.0015H198.479L200.113 19.6229H204.995L196.197 6.10229H194.966ZM190.243 14.2104L193.491 9.01018L196.738 14.2104H190.243Z" fill="#85868B"/>
<path d="M219.375 15.4839L220.246 15.4627C221.254 15.3884 222.103 15.1655 222.814 14.8153C223.525 14.4651 224.066 13.9557 224.438 13.2977C224.82 12.6397 225 11.8119 225 10.8143C225 9.93348 224.862 9.17998 224.597 8.57506C224.321 7.97013 223.939 7.48195 223.44 7.13173C222.941 6.7709 222.336 6.51619 221.646 6.34639C220.957 6.17658 220.192 6.10229 219.354 6.10229H205.812V19.6229H209.834V15.6962H214.971L219.832 19.6229H224.883L220.447 16.1313L219.375 15.4839ZM209.834 12.6822V9.55142H218.951C219.63 9.55142 220.108 9.66816 220.394 9.89103C220.681 10.1139 220.829 10.5278 220.829 11.1433C220.829 11.6952 220.681 12.0985 220.394 12.332C220.108 12.5654 219.619 12.6928 218.951 12.6928H209.834V12.6822Z" fill="#85868B"/>
<path d="M161.663 12.7247C161.685 11.7165 161.844 10.8144 162.141 10.0185C162.47 9.16946 162.937 8.45841 163.552 7.8641C164.168 7.2804 164.932 6.83466 165.824 6.5269C166.715 6.21913 167.734 6.05994 168.869 6.05994H181.201V9.55152H169.283C168.116 9.55152 167.224 9.83806 166.588 10.4005C165.972 10.9524 165.664 11.7696 165.654 12.8415C165.675 13.9133 165.983 14.7305 166.588 15.2824C167.214 15.8449 168.116 16.1314 169.283 16.1314H181.201V19.623H168.869C167.734 19.623 166.715 19.4638 165.824 19.156C164.932 18.8482 164.168 18.4025 163.552 17.8188C162.937 17.2351 162.459 16.5135 162.141 15.6644C161.833 14.8685 161.685 13.9664 161.663 12.9582V12.7247Z" fill="#85868B"/>
<path d="M27.0305 3.03526L29.2592 6.05989C29.5457 4.48921 29.7792 2.70627 29.8323 0.74292L27.0305 3.03526Z" fill="url(#paint0_linear_1304_2394)"/>
<path d="M10.3898 14.9533C12.4593 14.6986 14.5606 14.5181 16.6513 14.4332C19.262 14.3165 21.8409 14.3377 24.3349 14.4969L27.7946 12.0985C25.2476 11.8225 22.5201 11.6633 19.6865 11.6633C14.7728 11.6633 10.1669 12.1197 6.28267 12.905L4.6377 15.9084C4.83934 15.8553 7.01494 15.3672 10.3898 14.9533Z" fill="url(#paint1_linear_1304_2394)"/>
<path d="M36.5183 4.82882L39.0548 3.03527C38.9805 3.00343 38.6833 2.87608 38.227 2.7275C37.0914 2.32422 35.8179 1.95277 34.4595 1.62378L36.5183 4.82882Z" fill="url(#paint2_linear_1304_2394)"/>
<path d="M26.1498 17.3624L24.3456 14.4863C21.8304 14.3165 19.2727 14.3165 16.662 14.4226C14.5713 14.5181 12.47 14.688 10.4005 14.9427C7.02568 15.3566 5.31704 15.7386 4.64844 15.8978L7.86409 18.0416C11.3981 17.4366 15.4203 17.0864 19.6973 17.0864C21.9259 17.097 24.0697 17.1926 26.1498 17.3624Z" fill="url(#paint3_linear_1304_2394)"/>
<path d="M19.1984 2.72743C16.4922 2.75927 13.8496 2.91846 11.3344 3.19439C8.18245 3.54461 5.24273 4.08585 2.52588 4.83936L5.0517 6.81332C9.1376 5.89001 13.9558 5.34877 19.3152 5.34877C22.7643 5.34877 26.2241 5.58225 29.2699 6.0492L27.0412 3.02458C26.9563 3.02458 23.7619 2.68498 19.1984 2.72743Z" fill="url(#paint4_linear_1304_2394)"/>
<path d="M36.5077 4.82882C36.4865 8.88287 35.595 13.1067 33.8333 17.3943C32.4218 20.8328 30.4478 24.2925 27.9963 27.7629C25.8207 30.8406 23.6238 33.2921 22.1699 34.8203C20.6205 36.4547 19.6016 37.3568 19.5273 37.4204V40.4663C20.2172 39.8932 39.0547 25.6085 39.0547 3.04588V3.02466L36.5077 4.82882Z" fill="url(#paint5_linear_1304_2394)"/>
<path d="M19.5168 37.4205C19.4319 37.3462 18.4662 36.4229 16.8637 34.7779C15.3142 33.1966 13.2129 30.8618 11.0479 27.7735C8.60697 24.3138 6.66484 20.8328 5.22151 17.3837C5.01987 16.8955 4.83946 16.4497 4.65904 15.9616L4.64843 15.9509V15.9403V15.9297V15.9191L4.63781 15.8979C3.25816 12.1091 2.55772 8.43715 2.5365 4.83944L0.0106744 3.03528C-0.36077 25.2052 18.9013 39.9357 19.5274 40.4557V37.4205H19.5168Z" fill="url(#paint6_linear_1304_2394)"/>
<path d="M19.5168 34.7248V37.4204C19.6336 37.3143 20.6842 36.391 22.17 34.8309C23.624 33.3027 25.8102 30.8406 27.9964 27.7735C30.4585 24.3244 32.4219 20.8328 33.8334 17.4049C35.5951 13.1067 36.5078 8.87226 36.5184 4.82882L34.4595 1.62378C34.3534 3.88429 34.1942 5.51864 33.8334 7.95957C33.6636 9.05267 33.4726 9.98659 33.2603 10.9523C33.1648 11.4087 33.0268 11.9924 32.8358 12.7034C32.8252 12.7459 32.8146 12.799 32.804 12.8414C32.6129 13.5631 32.3476 14.4333 32.008 15.4521C31.5835 16.7257 31.3076 17.5004 31.1165 17.978C31.1165 17.978 31.1165 17.978 31.1271 17.978C26.9988 28.3041 20.0156 34.7142 19.5168 34.7248Z" fill="url(#paint7_linear_1304_2394)"/>
<path d="M11.0372 27.8053C13.2234 30.8724 15.4308 33.3027 16.8741 34.8309C18.3705 36.4016 19.4106 37.3249 19.5167 37.4204V34.7248C18.9967 34.7248 12.1833 28.5163 7.85335 18.0416L4.6377 15.8978C4.81811 16.3754 5.01975 16.906 5.21078 17.3836C6.62227 20.8327 8.57501 24.3562 11.0372 27.8053Z" fill="url(#paint8_linear_1304_2394)"/>
<path d="M6.28278 12.8945C5.70969 10.9842 5.3807 9.75316 5.0517 6.81344L2.52588 4.83948C2.53649 8.40535 3.25816 12.1304 4.63781 15.9085L6.28278 12.8945Z" fill="url(#paint9_linear_1304_2394)"/>
<path d="M24.3455 14.4864L26.139 17.3412L26.1496 17.3624C26.7333 15.8342 27.3064 14.0725 27.8052 12.0879L24.3455 14.4864Z" fill="url(#paint10_linear_1304_2394)"/>
<path d="M2.52582 4.83939H2.53644C5.22145 4.10712 8.17178 3.55526 11.3238 3.20504C13.8496 2.91849 16.4921 2.78053 19.1878 2.74869C19.4849 2.74869 19.7821 2.74869 20.0686 2.74869C24.1545 2.74869 26.9457 3.03523 27.02 3.04585L29.8217 0.742889C26.691 0.265318 23.21 0 19.538 0C11.9287 0 4.75449 1.27352 0.106127 3.0034C0.0530635 3.02462 0.0212254 3.03523 0 3.04585L2.52582 4.83939Z" fill="url(#paint11_linear_1304_2394)"/>
<path d="M56.7248 37.3567H48.9775V28.6862H56.7248C57.5526 28.6862 58.2849 28.7604 58.911 28.9196C59.5372 29.0788 60.0678 29.3229 60.5029 29.6519C60.9381 29.9915 61.2564 30.4266 61.4793 30.9785C61.6916 31.5304 61.8083 32.199 61.8083 33.0055C61.8083 33.8121 61.7022 34.4913 61.4793 35.0432C61.2564 35.595 60.9381 36.0408 60.5029 36.3804C60.0784 36.72 59.5478 36.9641 58.911 37.1126C58.2743 37.2825 57.5526 37.3567 56.7248 37.3567ZM50.5376 30.0234V36.0302H56.5868C57.4571 36.0302 58.1575 35.9346 58.6882 35.733C59.2188 35.5314 59.6009 35.213 59.8343 34.7779C60.0678 34.3321 60.1952 33.7484 60.1952 33.0268C60.1952 32.2839 60.0784 31.7002 59.8343 31.2757C59.6009 30.8405 59.2082 30.5328 58.6882 30.3311C58.1575 30.1401 57.4571 30.034 56.5868 30.034H50.5376V30.0234Z" fill="#85868B"/>
<path d="M80.9218 37.3567H69.6936V28.6862H80.9218V29.9278H71.2431V32.4112H80.6778V33.4619H71.2431V36.1044H80.9218V37.3567Z" fill="#85868B"/>
<path d="M100.152 35.0538C100.152 35.4889 100.067 35.8604 99.8972 36.1681C99.7274 36.4759 99.4409 36.7306 99.0376 36.9322C98.6343 37.1339 98.0825 37.2825 97.3926 37.3674C96.7028 37.4629 95.8326 37.5053 94.7925 37.5053C94.1346 37.5053 93.4341 37.4735 92.7124 37.4204C91.9908 37.3674 91.2903 37.2931 90.6324 37.1869C89.9638 37.0914 89.3801 36.9853 88.8813 36.8792L89.0935 35.6057C89.4968 35.7012 89.9425 35.7861 90.4307 35.8604C90.9189 35.9346 91.4177 36.0089 91.9589 36.062C92.4896 36.1257 93.0308 36.1681 93.5721 36.2C94.1133 36.2318 94.6334 36.253 95.1534 36.253C95.8963 36.253 96.5012 36.2318 96.9681 36.1787C97.4351 36.1363 97.7853 36.062 98.04 35.9665C98.2947 35.871 98.4645 35.7436 98.5601 35.5738C98.6556 35.4146 98.698 35.2236 98.698 35.0007C98.698 34.6823 98.6343 34.4383 98.507 34.2791C98.3796 34.1199 98.1886 34.0031 97.9445 33.9395C97.7004 33.8652 97.3927 33.8121 97.0318 33.7803L92.0863 33.3451C91.354 33.2921 90.7279 33.186 90.2397 33.0162C89.7409 32.8464 89.3694 32.6023 89.1254 32.2839C88.8813 31.9655 88.7539 31.5304 88.7539 30.9997C88.7539 30.4054 88.9237 29.9279 89.2739 29.567C89.6242 29.2062 90.1866 28.9409 90.9826 28.7711C91.7679 28.6013 92.8186 28.527 94.1133 28.527C94.5378 28.527 94.9942 28.5376 95.4824 28.5694C95.9706 28.6013 96.4693 28.6437 96.9788 28.6862C97.4882 28.7392 97.987 28.7923 98.4645 28.8666C98.9421 28.9303 99.3772 29.0152 99.7805 29.1001L99.5258 30.3099C99.165 30.2356 98.7511 30.1613 98.2841 30.0977C97.8172 30.034 97.329 29.9809 96.809 29.9279C96.2889 29.8854 95.7795 29.843 95.2595 29.8111C94.7501 29.7793 94.2619 29.7687 93.7949 29.7687C93.0521 29.7687 92.4365 29.7899 91.9696 29.8217C91.5026 29.8536 91.1418 29.9279 90.8871 30.0234C90.6324 30.1189 90.4626 30.2462 90.367 30.3948C90.2503 30.5752 90.2079 30.7663 90.2079 30.9891C90.2079 31.2651 90.2715 31.4879 90.4095 31.6365C90.5475 31.7851 90.7491 31.8912 91.0144 31.9443C91.2797 32.0079 91.6087 32.061 92.0014 32.1141L96.8196 32.5174C97.3502 32.5598 97.8172 32.6341 98.2311 32.7296C98.6449 32.8357 98.9952 32.9737 99.2817 33.1647C99.5683 33.3558 99.7805 33.5999 99.9291 33.9076C100.078 34.2154 100.152 34.5974 100.152 35.0538Z" fill="#85868B"/>
<path d="M109.64 37.3567H108.09V28.6862H109.64V37.3567Z" fill="#85868B"/>
<path d="M117.546 33.0162C117.546 32.2627 117.673 31.6047 117.918 31.0422C118.162 30.4797 118.544 30.0234 119.053 29.6519C119.563 29.2805 120.231 29.0046 121.038 28.8241C121.844 28.6437 122.821 28.5482 123.946 28.5482C124.614 28.5482 125.293 28.5801 125.983 28.6543C126.673 28.718 127.342 28.8135 128 28.9303C128.647 29.047 129.252 29.1744 129.793 29.3017L129.496 30.6071C129.008 30.501 128.467 30.3842 127.851 30.2781C127.236 30.172 126.588 30.0764 125.909 30.0022C125.23 29.9279 124.54 29.8854 123.839 29.8854C122.937 29.8854 122.173 29.9491 121.568 30.0764C120.963 30.2038 120.475 30.3948 120.114 30.6601C119.754 30.9149 119.499 31.2438 119.34 31.6365C119.18 32.0292 119.106 32.4855 119.106 33.0056C119.106 33.5362 119.18 34.0031 119.34 34.3958C119.499 34.7885 119.754 35.1069 120.114 35.3722C120.475 35.6269 120.963 35.8285 121.568 35.9559C122.184 36.0832 122.937 36.1469 123.839 36.1469C124.36 36.1469 124.869 36.1257 125.389 36.0726C125.898 36.0196 126.397 35.9559 126.885 35.8922C127.374 35.8179 127.809 35.7436 128.191 35.6693V32.8994H129.793V36.7518C129.252 36.8898 128.658 37.0172 128 37.1233C127.342 37.24 126.673 37.3249 125.983 37.3992C125.293 37.4629 124.614 37.5053 123.946 37.5053C122.821 37.5053 121.844 37.4098 121.038 37.2294C120.231 37.049 119.563 36.7731 119.053 36.4016C118.544 36.0302 118.162 35.5738 117.918 35.0114C117.663 34.4489 117.546 33.7803 117.546 33.0162Z" fill="#85868B"/>
<path d="M139.377 37.3567H137.827V28.6862H139.61L148.504 35.6799V28.6862H150.053V37.3567H148.281L139.377 30.3099V37.3567Z" fill="#85868B"/>
</g>
<defs>
<linearGradient id="paint0_linear_1304_2394" x1="26.6791" y1="-0.371291" x2="40.9208" y2="18.3122" gradientUnits="userSpaceOnUse">
<stop stop-color="#434545"/>
<stop offset="0.0545" stop-color="#525454"/>
<stop offset="0.1594" stop-color="#797A7A"/>
<stop offset="0.3028" stop-color="#B8B8B7"/>
<stop offset="0.3593" stop-color="#D3D2D1"/>
<stop offset="0.7489" stop-color="#4E4F4D"/>
<stop offset="1" stop-color="#D3D2D1"/>
</linearGradient>
<linearGradient id="paint1_linear_1304_2394" x1="18.2954" y1="49.3299" x2="15.7032" y2="5.19013" gradientUnits="userSpaceOnUse">
<stop offset="0.0303" stop-color="#6E6E6E"/>
<stop offset="0.0885" stop-color="#929191"/>
<stop offset="0.1212" stop-color="#A19F9F"/>
<stop offset="0.2511" stop-color="#9B9B9B"/>
<stop offset="0.3333" stop-color="#8A8A8A"/>
<stop offset="0.4113" stop-color="#A19F9F"/>
<stop offset="0.5628" stop-color="#9B9B9B"/>
<stop offset="0.778" stop-color="#8B8B8B"/>
<stop offset="0.7836" stop-color="#8A8A8A"/>
<stop offset="0.8485" stop-color="#D3D2D1"/>
<stop offset="1" stop-color="#9B9B9B"/>
</linearGradient>
<linearGradient id="paint2_linear_1304_2394" x1="41.43" y1="-5.88597" x2="28.8608" y2="16.1629" gradientUnits="userSpaceOnUse">
<stop stop-color="#434545"/>
<stop offset="0.0545" stop-color="#525454"/>
<stop offset="0.1594" stop-color="#797A7A"/>
<stop offset="0.3028" stop-color="#B8B8B7"/>
<stop offset="0.3593" stop-color="#D3D2D1"/>
<stop offset="0.7489" stop-color="#4E4F4D"/>
<stop offset="1" stop-color="#D3D2D1"/>
</linearGradient>
<linearGradient id="paint3_linear_1304_2394" x1="15.3937" y1="-13.8741" x2="15.3937" y2="40.5087" gradientUnits="userSpaceOnUse">
<stop offset="0.0303" stop-color="#6E6E6E"/>
<stop offset="0.0885" stop-color="#929191"/>
<stop offset="0.1212" stop-color="#A19F9F"/>
<stop offset="0.2511" stop-color="#3D3E3D"/>
<stop offset="0.3333" stop-color="#8A8A8A"/>
<stop offset="0.4113" stop-color="#A19F9F"/>
<stop offset="0.4523" stop-color="#7D7C7C"/>
<stop offset="0.4991" stop-color="#5A5A5A"/>
<stop offset="0.5376" stop-color="#454645"/>
<stop offset="0.5628" stop-color="#3D3E3D"/>
<stop offset="0.6227" stop-color="#4E4E4E"/>
<stop offset="0.7402" stop-color="#797979"/>
<stop offset="0.7836" stop-color="#8A8A8A"/>
<stop offset="0.8485" stop-color="#D3D2D1"/>
<stop offset="1" stop-color="#3D3E3D"/>
</linearGradient>
<linearGradient id="paint4_linear_1304_2394" x1="14.5082" y1="-12.8518" x2="19.3738" y2="51.2564" gradientUnits="userSpaceOnUse">
<stop offset="0.0303" stop-color="#9B9999"/>
<stop offset="0.1212" stop-color="#A19F9F"/>
<stop offset="0.1983" stop-color="#20201F"/>
<stop offset="0.3333" stop-color="#787777"/>
<stop offset="0.4113" stop-color="#A19F9F"/>
<stop offset="0.4254" stop-color="#908E8E"/>
<stop offset="0.4701" stop-color="#605F5F"/>
<stop offset="0.5095" stop-color="#3D3D3C"/>
<stop offset="0.5418" stop-color="#282827"/>
<stop offset="0.5628" stop-color="#20201F"/>
<stop offset="0.6163" stop-color="#313030"/>
<stop offset="0.7212" stop-color="#5B5B5A"/>
<stop offset="0.7836" stop-color="#787777"/>
<stop offset="0.8485" stop-color="#D3D2D1"/>
<stop offset="1" stop-color="#20201F"/>
</linearGradient>
<linearGradient id="paint5_linear_1304_2394" x1="29.2836" y1="-4.2757" x2="29.2836" y2="44.9065" gradientUnits="userSpaceOnUse">
<stop stop-color="#5F5F60"/>
<stop offset="0.0524" stop-color="#6E6E6F"/>
<stop offset="0.1533" stop-color="#959595"/>
<stop offset="0.2888" stop-color="#D3D2D1"/>
<stop offset="0.6363" stop-color="#2E2E2E"/>
</linearGradient>
<linearGradient id="paint6_linear_1304_2394" x1="9.75986" y1="-4.27866" x2="9.75986" y2="44.9135" gradientUnits="userSpaceOnUse">
<stop stop-color="#5F5F60"/>
<stop offset="0.0524" stop-color="#6E6E6F"/>
<stop offset="0.1533" stop-color="#959595"/>
<stop offset="0.2888" stop-color="#D3D2D1"/>
<stop offset="0.6363" stop-color="#2E2E2E"/>
</linearGradient>
<linearGradient id="paint7_linear_1304_2394" x1="28.0169" y1="25.5923" x2="28.0169" y2="-65.8204" gradientUnits="userSpaceOnUse">
<stop stop-color="#9D9C9C"/>
<stop offset="0.0551" stop-color="#8E8D8D"/>
<stop offset="0.1611" stop-color="#676666"/>
<stop offset="0.2683" stop-color="#393838"/>
<stop offset="0.4485" stop-color="#D3D2D1"/>
<stop offset="0.7489" stop-color="#393838"/>
<stop offset="1" stop-color="#A3A3A3"/>
</linearGradient>
<linearGradient id="paint8_linear_1304_2394" x1="12.0792" y1="25.569" x2="12.0792" y2="-66.0176" gradientUnits="userSpaceOnUse">
<stop stop-color="#9D9C9C"/>
<stop offset="0.0551" stop-color="#8E8D8D"/>
<stop offset="0.1611" stop-color="#676666"/>
<stop offset="0.2683" stop-color="#393838"/>
<stop offset="0.4485" stop-color="#D3D2D1"/>
<stop offset="0.7489" stop-color="#393838"/>
<stop offset="1" stop-color="#A3A3A3"/>
</linearGradient>
<linearGradient id="paint9_linear_1304_2394" x1="4.40871" y1="25.6024" x2="4.40871" y2="-65.9111" gradientUnits="userSpaceOnUse">
<stop stop-color="#9D9C9C"/>
<stop offset="0.0551" stop-color="#8E8D8D"/>
<stop offset="0.1611" stop-color="#676666"/>
<stop offset="0.2683" stop-color="#393838"/>
<stop offset="0.4485" stop-color="#D3D2D1"/>
<stop offset="0.7489" stop-color="#393838"/>
<stop offset="1" stop-color="#A3A3A3"/>
</linearGradient>
<linearGradient id="paint10_linear_1304_2394" x1="21.9173" y1="15.0554" x2="60.8279" y2="12.5361" gradientUnits="userSpaceOnUse">
<stop stop-color="#434545"/>
<stop offset="0.0545" stop-color="#525454"/>
<stop offset="0.1594" stop-color="#797A7A"/>
<stop offset="0.3028" stop-color="#B8B8B7"/>
<stop offset="0.3593" stop-color="#D3D2D1"/>
<stop offset="0.7489" stop-color="#4E4F4D"/>
<stop offset="1" stop-color="#D3D2D1"/>
</linearGradient>
<linearGradient id="paint11_linear_1304_2394" x1="17.8442" y1="45.5818" x2="14.2654" y2="-7.87716" gradientUnits="userSpaceOnUse">
<stop offset="0.0303" stop-color="#878686"/>
<stop offset="0.0601" stop-color="#A8A6A6"/>
<stop offset="0.1002" stop-color="#CFCCCC"/>
<stop offset="0.1212" stop-color="#DEDBDB"/>
<stop offset="0.2511" stop-color="#9B9B9B"/>
<stop offset="0.3333" stop-color="#B2AFB0"/>
<stop offset="0.4113" stop-color="#DEDBDB"/>
<stop offset="0.4163" stop-color="#DBD8D8"/>
<stop offset="0.4784" stop-color="#B8B7B7"/>
<stop offset="0.5295" stop-color="#A3A2A2"/>
<stop offset="0.5628" stop-color="#9B9B9B"/>
<stop offset="0.7293" stop-color="#ABA9AA"/>
<stop offset="0.7836" stop-color="#B2AFB0"/>
<stop offset="0.8485" stop-color="#E3E2E1"/>
<stop offset="1" stop-color="#9B9B9B"/>
</linearGradient>
<clipPath id="clip0_1304_2394">
<rect width="225" height="40.4663" fill="white"/>
</clipPath>
</defs>
</svg>
